<svg width="42" height="42" viewBox="0 0 42 42" fill="none" xmlns="http://www.w3.org/2000/svg">
  <path d="M6.76175 28.7962C5.26025 22.7903 4.5095 19.789 6.08625 17.7695C7.66125 15.75 10.7588 15.75 16.9485 15.75H25.051C31.2425 15.75 34.3365 15.75 35.9133 17.7695C37.49 19.7873 36.7393 22.792 35.2378 28.7962C34.2823 32.6165 33.8063 34.5257 32.3818 35.6387C30.9573 36.75 28.9885 36.75 25.051 36.75H16.9485C13.011 36.75 11.0423 36.75 9.61775 35.6387C8.19325 34.5257 7.7155 32.6165 6.76175 28.7962Z" stroke="#114683" stroke-width="2.625"/>
  <path opacity="0.5" d="M34.125 16.625L32.8825 12.0662C32.403 10.3075 32.1632 9.429 31.6715 8.76575C31.1812 8.10681 30.5153 7.5992 29.75 7.301C28.98 7 28.07 7 26.25 7M7.875 16.625L9.1175 12.0662C9.597 10.3075 9.83675 9.429 10.3285 8.76575C10.8188 8.10681 11.4847 7.5992 12.25 7.301C13.02 7 13.93 7 15.75 7" stroke="#114683" stroke-width="2.625"/>
  <path d="M15.75 7C15.75 6.53587 15.9344 6.09075 16.2626 5.76256C16.5908 5.43437 17.0359 5.25 17.5 5.25H24.5C24.9641 5.25 25.4092 5.43437 25.7374 5.76256C26.0656 6.09075 26.25 6.53587 26.25 7C26.25 7.46413 26.0656 7.90925 25.7374 8.23744C25.4092 8.56563 24.9641 8.75 24.5 8.75H17.5C17.0359 8.75 16.5908 8.56563 16.2626 8.23744C15.9344 7.90925 15.75 7.46413 15.75 7Z" stroke="#114683" stroke-width="2.625"/>
</svg>