<svg width="40" height="39" viewBox="0 0 40 39" fill="none" xmlns="http://www.w3.org/2000/svg">
  <path d="M15.1252 8.12483C14.6943 8.12483 14.2809 8.29604 13.9762 8.60078C13.6714 8.90553 13.5002 9.31886 13.5002 9.74983C13.5002 10.1808 13.6714 10.5941 13.9762 10.8989C14.2809 11.2036 14.6943 11.3748 15.1252 11.3748C15.5562 11.3748 15.9695 11.2036 16.2743 10.8989C16.579 10.5941 16.7502 10.1808 16.7502 9.74983C16.7502 9.31886 16.579 8.90553 16.2743 8.60078C15.9695 8.29604 15.5562 8.12483 15.1252 8.12483ZM10.5265 8.12483C10.8622 7.17334 11.4848 6.34941 12.3085 5.76661C13.1321 5.18382 14.1163 4.87085 15.1252 4.87085C16.1342 4.87085 17.1184 5.18382 17.942 5.76661C18.7657 6.34941 19.3883 7.17334 19.724 8.12483H31.3752C31.8062 8.12483 32.2195 8.29604 32.5243 8.60078C32.829 8.90553 33.0002 9.31886 33.0002 9.74983C33.0002 10.1808 32.829 10.5941 32.5243 10.8989C32.2195 11.2036 31.8062 11.3748 31.3752 11.3748H19.724C19.3883 12.3263 18.7657 13.1503 17.942 13.7331C17.1184 14.3158 16.1342 14.6288 15.1252 14.6288C14.1163 14.6288 13.1321 14.3158 12.3085 13.7331C11.4848 13.1503 10.8622 12.3263 10.5265 11.3748H8.62524C8.19427 11.3748 7.78094 11.2036 7.4762 10.8989C7.17145 10.5941 7.00024 10.1808 7.00024 9.74983C7.00024 9.31886 7.17145 8.90553 7.4762 8.60078C7.78094 8.29604 8.19427 8.12483 8.62524 8.12483H10.5265ZM24.8752 17.8748C24.4443 17.8748 24.0309 18.046 23.7262 18.3508C23.4214 18.6555 23.2502 19.0689 23.2502 19.4998C23.2502 19.9308 23.4214 20.3441 23.7262 20.6489C24.0309 20.9536 24.4443 21.1248 24.8752 21.1248C25.3062 21.1248 25.7195 20.9536 26.0243 20.6489C26.329 20.3441 26.5002 19.9308 26.5002 19.4998C26.5002 19.0689 26.329 18.6555 26.0243 18.3508C25.7195 18.046 25.3062 17.8748 24.8752 17.8748ZM20.2765 17.8748C20.6122 16.9233 21.2348 16.0994 22.0585 15.5166C22.8821 14.9338 23.8663 14.6208 24.8752 14.6208C25.8842 14.6208 26.8684 14.9338 27.692 15.5166C28.5157 16.0994 29.1383 16.9233 29.474 17.8748H31.3752C31.8062 17.8748 32.2195 18.046 32.5243 18.3508C32.829 18.6555 33.0002 19.0689 33.0002 19.4998C33.0002 19.9308 32.829 20.3441 32.5243 20.6489C32.2195 20.9536 31.8062 21.1248 31.3752 21.1248H29.474C29.1383 22.0763 28.5157 22.9003 27.692 23.483C26.8684 24.0658 25.8842 24.3788 24.8752 24.3788C23.8663 24.3788 22.8821 24.0658 22.0585 23.483C21.2348 22.9003 20.6122 22.0763 20.2765 21.1248H8.62524C8.19427 21.1248 7.78094 20.9536 7.4762 20.6489C7.17145 20.3441 7.00024 19.9308 7.00024 19.4998C7.00024 19.0689 7.17145 18.6555 7.4762 18.3508C7.78094 18.046 8.19427 17.8748 8.62524 17.8748H20.2765ZM15.1252 27.6248C14.6943 27.6248 14.2809 27.796 13.9762 28.1008C13.6714 28.4055 13.5002 28.8189 13.5002 29.2498C13.5002 29.6808 13.6714 30.0941 13.9762 30.3989C14.2809 30.7036 14.6943 30.8748 15.1252 30.8748C15.5562 30.8748 15.9695 30.7036 16.2743 30.3989C16.579 30.0941 16.7502 29.6808 16.7502 29.2498C16.7502 28.8189 16.579 28.4055 16.2743 28.1008C15.9695 27.796 15.5562 27.6248 15.1252 27.6248ZM10.5265 27.6248C10.8622 26.6733 11.4848 25.8494 12.3085 25.2666C13.1321 24.6838 14.1163 24.3709 15.1252 24.3709C16.1342 24.3709 17.1184 24.6838 17.942 25.2666C18.7657 25.8494 19.3883 26.6733 19.724 27.6248H31.3752C31.8062 27.6248 32.2195 27.796 32.5243 28.1008C32.829 28.4055 33.0002 28.8189 33.0002 29.2498C33.0002 29.6808 32.829 30.0941 32.5243 30.3989C32.2195 30.7036 31.8062 30.8748 31.3752 30.8748H19.724C19.3883 31.8263 18.7657 32.6503 17.942 33.2331C17.1184 33.8158 16.1342 34.1288 15.1252 34.1288C14.1163 34.1288 13.1321 33.8158 12.3085 33.2331C11.4848 32.6503 10.8622 31.8263 10.5265 30.8748H8.62524C8.19427 30.8748 7.78094 30.7036 7.4762 30.3989C7.17145 30.0941 7.00024 29.6808 7.00024 29.2498C7.00024 28.8189 7.17145 28.4055 7.4762 28.1008C7.78094 27.796 8.19427 27.6248 8.62524 27.6248H10.5265Z" fill="#114683"/>
</svg>